<svg version="1.1" xmlns="http://www.w3.org/2000/svg" xmlns:xlink="http://www.w3.org/1999/xlink" x="0px" y="0px" viewBox="0 0 256 256" enable-background="new 0 0 256 256" xml:space="preserve">
   <metadata> Svg Vector Icons : http://www.onlinewebfonts.com/icon </metadata>
   <g>
      <g>
         <g>
            <path fill="#FFFFFF" data-title="Layer 0" xs="0" d="M70.4,9.1c-14.9,1.7-28.9,8.7-40.2,20c-10.1,10.1-16,21-19.1,35.2c-1.3,6.1-1.4,18.3-0.2,24.9c2.4,13.1,9.1,26,18.6,36.1l3.1,3.3v21.3c0,11.7,0.1,21.3,0.2,21.3c0.1,0,5.2-2.8,11.2-6.2c6.1-3.4,11.2-6.2,11.4-6.2s0.4,0.6,0.4,1.4c0,0.8,0.4,3.5,0.9,6.1c2.7,13.6,8.9,25.2,19.1,35.4c10.1,10.1,21.1,16.1,35.3,19.2c4.2,0.9,6.4,1,35.6,1.1l31.1,0.2l22.4,12.6c12.3,6.9,22.5,12.6,22.6,12.6c0.1,0,0.2-9.6,0.2-21.3v-21.3l3.1-3.3c7.5-8,14-19,16.9-28.9c7-24,0.5-49.1-17.4-67.1c-7.2-7.2-14.7-12.3-23.2-15.7l-3.2-1.3l0.4-2.7c0.6-5,0.3-15.2-0.6-20.3c-2.6-14.2-8.9-26.1-19.3-36.5c-11.3-11.4-23.9-17.7-39.6-19.8c-4-0.6-11.5-0.7-35.7-0.7C87.7,8.7,72.3,8.9,70.4,9.1z M144.4,17.4c12.2,3,21.3,7.7,29.5,15.5c9.2,8.8,14.9,19.2,17.8,32c0.6,3,0.9,6.1,0.9,12.4c0,4.6-0.1,8.5-0.3,8.7c-0.1,0.1-2.4,0-5-0.4c-4-0.6-15-0.7-73.9-0.7H44v3.8v3.8h24.4h24.4l-3.2,1.9c-11,6.4-21.3,17.4-27.1,29c-3.4,6.9-6.1,16-6.9,23.9l-0.3,2.7l-7.2,4c-4,2.2-7.4,4.1-7.6,4.2c-0.2,0.1-0.4-7.3-0.4-16.4v-16.6l-4.3-4.3c-6.8-6.8-10.9-12.7-14.1-20.4c-3.4-8.4-4.7-16.3-4.3-25.8c0.5-11.9,3.8-22.1,10.2-31.9c2.9-4.3,9.4-11.1,14-14.5c7.1-5.2,17.2-9.6,25.7-11c2-0.3,3.9-0.6,4.3-0.7c0.4-0.1,16.2-0.1,35,0C137,16.5,141.4,16.7,144.4,17.4z M184.8,93c2.4,0.3,6.9,1.2,10.1,2.1c9.7,2.6,17.4,7,24.7,14c9.1,8.8,15,19.3,17.7,31.9c1,4.9,1.4,15,0.7,20.1c-1.9,14.3-7.7,25.7-18.3,36.1l-4.2,4.1v16.5c0,9.2-0.1,16.6-0.2,16.6s-8.1-4.4-17.7-9.9l-17.6-9.9l-32.6-0.3c-28.3-0.2-33.1-0.4-36-1.1c-12.2-2.9-21.3-7.7-29.5-15.5c-9.2-8.8-14.9-19.2-17.8-32c-1.1-5.3-1.1-17.9,0-23.8c5.2-26.3,25.7-45.6,52-48.9C121.2,92.4,179.7,92.4,184.8,93z"/>
            <path fill="#FFFFFF" data-title="Layer 1" xs="1" d="M44,42.9v3.8h61h61v-3.8v-3.8h-61H44V42.9z"/>
            <path fill="#FFFFFF" data-title="Layer 2" xs="2" d="M44,65.8v3.8h61h61v-3.8V62h-61H44V65.8z"/>
            <path fill="#FFFFFF" data-title="Layer 3" xs="3" d="M142.9,100.8c-12.1,2.8-21.1,10.9-24.9,22.4c-1,3.2-1.3,4.6-1.3,9.3c0,4.7,0.2,6.1,1.3,9.3c0.7,2.1,2,5.2,3.1,6.9c2.1,3.6,7,8.7,10.2,10.8l2.2,1.4l-3.1,1.9c-6.6,4-13.1,11.9-15.6,19.2c-1.7,4.8-2.1,8.5-2.1,17.2v7.8h36.2h36.2v-7.8c0-8.6-0.5-12.4-2.1-17.2c-2.5-7.3-9-15.2-15.6-19.2l-3.1-1.9l2.1-1.4c3.2-2,8.2-7.3,10.3-10.8c1-1.7,2.3-4.8,3.1-6.9c1-3.2,1.3-4.6,1.3-9.3c0-4.7-0.2-6.1-1.3-9.3c-1.8-5.3-4.3-9.3-8.2-13.3c-4-4-8.1-6.5-13.3-8.2C153.5,100.2,147.1,99.8,142.9,100.8z M154.2,108.2c4.2,0.8,9.2,3.5,12.4,6.6c9.5,9.5,9.5,25.9,0,35.4c-11.8,11.8-32.8,8.4-39.8-6.3C117.6,124.5,133.2,104.2,154.2,108.2z M156.2,165.9c5.3,1.3,9.1,3.5,12.9,7.4c5.7,5.7,8.3,12.3,8.3,21.3v4.7h-28.6h-28.6v-4.7c0-9,2.6-15.7,8.3-21.3C135.7,166,146.2,163.3,156.2,165.9z"/>
            <path fill="#FFFFFF" data-title="Layer 4" xs="4" d="M137.5,119.8c-2.6,1.3-2.3,5.4,0.5,6.5c4.2,1.8,7.2-4.7,3-6.6C139.5,119,138.9,119,137.5,119.8z"/>
            <path fill="#FFFFFF" data-title="Layer 5" xs="5" d="M156.6,119.8c-2.6,1.3-2.3,5.4,0.5,6.5c4.2,1.8,7.2-4.7,3-6.6C158.6,119,158,119,156.6,119.8z"/>
            <path fill="#FFFFFF" data-title="Layer 6" xs="6" d="M134.3,137.8c-1,0.8-2.3,1.8-2.9,2.1c-0.9,0.7-0.9,0.8,1.6,3.1c4.2,3.9,10.7,6.6,15.8,6.6c2.8,0,7-1.1,10.3-2.7c2.5-1.2,8.3-6,7.8-6.4c-0.8-0.8-5.6-4.2-5.8-4.2c-0.1,0-1.1,0.9-2.3,1.9c-5.5,5.1-14.1,5.1-20.1,0c-1.2-1-2.3-1.9-2.4-1.9C136.3,136.3,135.4,137,134.3,137.8z"/>
         </g>
      </g>
   </g>
</svg>