<svg
  width="40"
  height="40"
  viewBox="0 0 24 24"
  fill="white"
  xmlns="http://www.w3.org/2000/svg"
>
  <path d="M12 2C13.66 2 15 3.34 15 5C15 6.66 13.66 8 12 8C10.34 8 9 6.66 9 5C9 3.34 10.34 2 12 2ZM6 9C7.66 9 9 10.34 9 12C9 13.66 7.66 15 6 15C4.34 15 3 13.66 3 12C3 10.34 4.34 9 6 9ZM18 9C19.66 9 21 10.34 21 12C21 13.66 19.66 15 18 15C16.34 15 15 13.66 15 12C15 10.34 16.34 9 18 9ZM6 16C8.67 16 14 17.34 14 20V22H2V20C2 17.34 4.67 16 6 16ZM18 16C19.33 16 22 17.34 22 20V22H16V20C16 17.34 17.33 16 18 16ZM12 9C14.67 9 20 10.34 20 13V15H16V13C16 12.03 13.88 11 12 11C10.12 11 8 12.03 8 13V15H4V13C4 10.34 9.33 9 12 9Z" />
</svg>
